<svg width="20" height="21" viewBox="0 0 20 21" fill="none" xmlns="http://www.w3.org/2000/svg">
<g clip-path="url(#clip0_52_2053)">
<path d="M4.07601 13.8768C6.03405 16.2344 8.38503 18.0793 11.129 19.4113C11.795 19.7309 12.3944 19.9774 12.9272 20.1505C13.6731 20.3903 14.3924 20.5368 15.085 20.5901H15.3647C16.3904 20.5901 17.2362 20.2238 17.9022 19.4912L17.9222 19.4712C18.0687 19.298 18.3151 19.045 18.6614 18.712L18.7214 18.652C18.9478 18.4256 19.1409 18.2324 19.3008 18.0726C19.7403 17.6064 19.9601 17.1036 19.9601 16.5641C19.9601 16.0247 19.7403 15.5351 19.3008 15.0956L16.8033 12.5981C16.377 12.1585 15.8909 11.9387 15.3447 11.9387C14.7986 11.9387 14.3058 12.1585 13.8662 12.5981L12.3877 14.0766C12.2545 13.9967 12.1146 13.9234 11.9681 13.8568C11.8216 13.7902 11.6751 13.7103 11.5286 13.6171C10.1832 12.7646 8.93115 11.6257 7.77231 10.2005C7.18623 9.46788 6.75999 8.79522 6.49359 8.1825C6.77331 7.92941 7.14627 7.56977 7.61247 7.10357L7.99209 6.70397C8.44497 6.25109 8.67141 5.75492 8.67141 5.21546C8.67141 4.676 8.44497 4.17983 7.99209 3.72695L6.33375 2.06861C6.05403 1.77557 5.77431 1.49585 5.49459 1.22945C5.05503 0.803207 4.56885 0.590088 4.03605 0.590088C3.50325 0.590088 3.01041 0.803207 2.55753 1.22945L0.999085 2.78789C0.719365 3.05429 0.499584 3.36398 0.339744 3.71696C0.179904 4.06994 0.0866639 4.43957 0.0600239 4.82585C-0.0198962 5.79821 0.173244 6.90377 0.639444 8.14254C0.999085 9.12822 1.45863 10.0873 2.01807 11.0197C2.57751 11.9521 3.26349 12.9044 4.07601 13.8768ZM1.05902 4.90577C1.1123 4.35965 1.33209 3.89345 1.71837 3.50717L3.27681 1.94873C3.51657 1.72229 3.76632 1.60907 4.02606 1.60907C4.2858 1.60907 4.53555 1.72895 4.77531 1.96871C4.93515 2.11523 5.18157 2.35499 5.51457 2.68799L7.27281 4.44623C7.52589 4.71263 7.65243 4.97237 7.65243 5.22545C7.65243 5.47853 7.52589 5.73827 7.27281 6.00467L6.83325 6.44423C6.35373 6.92375 5.98743 7.27673 5.73435 7.50317L5.71437 7.52315C5.55453 7.68299 5.46795 7.84949 5.45463 8.02265C5.44131 8.14254 5.46129 8.2824 5.51457 8.44223V8.48219C5.83425 9.22812 6.32043 10.014 6.97311 10.8398C8.19855 12.3583 9.53055 13.5704 10.9691 14.4762C11.0624 14.5428 11.2155 14.6294 11.4287 14.7359L11.5086 14.7759C11.7217 14.8825 11.8749 14.969 11.9681 15.0356L12.0081 15.0556C12.1546 15.1222 12.2945 15.1555 12.4277 15.1555C12.6408 15.1555 12.8406 15.0623 13.0271 14.8758L14.5855 13.3174C14.8253 13.0776 15.0783 12.9577 15.3447 12.9577C15.6111 12.9577 15.8576 13.0776 16.084 13.3174L18.5815 15.8149C18.8213 16.0679 18.9411 16.3277 18.9411 16.5941C18.9411 16.8605 18.8146 17.1202 18.5615 17.3733C18.4416 17.5198 18.2618 17.7063 18.0221 17.9327L17.9821 17.9727C17.5958 18.3323 17.3161 18.6187 17.1429 18.8318C16.6767 19.338 16.084 19.5911 15.3647 19.5911L15.1449 19.5711C14.5455 19.5311 13.8995 19.3979 13.2069 19.1715C12.7274 19.0117 12.1879 18.7919 11.5885 18.5122C8.96445 17.2468 6.72003 15.4885 4.85523 13.2374C4.08267 12.3184 3.42999 11.4126 2.89719 10.5202C2.36439 9.62772 1.93149 8.72196 1.59849 7.80287C1.18557 6.69731 1.00574 5.73161 1.05902 4.90577Z" fill="#9867FF"/>
</g>
<defs>
<clipPath id="clip0_52_2053">
<rect width="20" height="20" fill="white" transform="matrix(1 0 0 -1 0 20.5901)"/>
</clipPath>
</defs>
</svg>
