<svg width="20" height="21" viewBox="0 0 20 21" fill="none" xmlns="http://www.w3.org/2000/svg">
<g clip-path="url(#clip0_52_2049)">
<path d="M10.01 0.590088C8.7313 0.590088 7.54582 0.909767 6.45357 1.54913C5.38797 2.17517 4.54881 3.01433 3.93609 4.06661C3.29673 5.15885 2.97705 6.34433 2.97705 7.62305C2.97705 8.95506 3.32337 10.1872 4.01601 11.3194L9.59044 20.3104C9.71032 20.4968 9.87682 20.5901 10.0899 20.5901H10.1099C10.323 20.5901 10.4895 20.4968 10.6094 20.3104L16.044 11.2195C16.6967 10.1139 17.023 8.91843 17.023 7.63304C17.023 6.34766 16.7033 5.15885 16.064 4.06661C15.4512 3.01433 14.6121 2.17517 13.5465 1.54913C12.4542 0.909767 11.2754 0.590088 10.01 0.590088ZM15.025 10.6201L10.0899 18.8718L5.01501 10.7C4.42893 9.75426 4.13589 8.72862 4.13589 7.62305C4.13589 6.55745 4.40229 5.57177 4.93509 4.66601C5.45457 3.77357 6.15387 3.06761 7.033 2.54813C7.95208 2.01533 8.94109 1.74893 10 1.74893C11.059 1.74893 12.0413 2.01533 12.9471 2.54813C13.8395 3.06761 14.5455 3.77357 15.065 4.66601C15.5978 5.57177 15.8642 6.56078 15.8642 7.63304C15.8642 8.70531 15.5844 9.70098 15.025 10.6201ZM10.01 4.10657C9.37066 4.10657 8.78125 4.26308 8.24179 4.5761C7.70233 4.88912 7.27609 5.31536 6.96306 5.85482C6.65004 6.39428 6.49353 6.98036 6.49353 7.61306C6.49353 8.24576 6.65004 8.83185 6.96306 9.37131C7.27609 9.91077 7.699 10.3403 8.2318 10.66C8.7646 10.9797 9.35401 11.1395 10 11.1395C10.646 11.1395 11.2388 10.9797 11.7782 10.66C12.3177 10.3403 12.7406 9.91077 13.047 9.37131C13.3533 8.83185 13.5065 8.24576 13.5065 7.61306C13.5065 6.98036 13.35 6.39428 13.037 5.85482C12.724 5.31536 12.2977 4.88912 11.7583 4.5761C11.2188 4.26308 10.6294 4.10657 9.99004 4.10657H10.01ZM10.01 9.9807C9.58378 9.9807 9.18751 9.87414 8.82121 9.66102C8.45491 9.4479 8.16853 9.16152 7.96207 8.80188C7.75561 8.44223 7.65238 8.04929 7.65238 7.62305C7.65238 7.19681 7.75894 6.80387 7.97206 6.44423C8.18518 6.08459 8.47156 5.79821 8.8312 5.58509C9.19084 5.37197 9.58045 5.26541 10 5.26541C10.4196 5.26541 10.8092 5.37197 11.1689 5.58509C11.5285 5.79821 11.8149 6.08459 12.028 6.44423C12.2411 6.80387 12.3477 7.19348 12.3477 7.61306C12.3477 8.03265 12.2445 8.42558 12.038 8.79189C11.8315 9.15819 11.5485 9.4479 11.1888 9.66102C10.8292 9.87414 10.4363 9.9807 10.01 9.9807Z" fill="#9867FF"/>
</g>
<defs>
<clipPath id="clip0_52_2049">
<rect width="20" height="20" fill="white" transform="matrix(1 0 0 -1 0 20.5901)"/>
</clipPath>
</defs>
</svg>
