<svg width="20" height="21" viewBox="0 0 20 21" fill="none" xmlns="http://www.w3.org/2000/svg">
<g clip-path="url(#clip0_52_2057)">
<path d="M18.3417 3.08753H1.65834C1.20546 3.08753 0.815851 3.2507 0.489511 3.57704C0.16317 3.90338 0 4.29965 0 4.76586V16.4142C0 16.8804 0.16317 17.2767 0.489511 17.603C0.815851 17.9294 1.20546 18.0925 1.65834 18.0925H18.3417C18.7945 18.0925 19.1842 17.9294 19.5105 17.603C19.8368 17.2767 20 16.8804 20 16.4142V4.76586C20 4.29965 19.8368 3.90338 19.5105 3.57704C19.1842 3.2507 18.7945 3.08753 18.3417 3.08753ZM1.65834 3.92669H18.3417C18.3683 3.92669 18.4083 3.93335 18.4615 3.94667L18.5015 3.96665C14.4522 7.66962 11.8215 10.0672 10.6094 11.1595C10.4096 11.3326 10.2065 11.4192 10 11.4192C9.79354 11.4192 9.59041 11.3326 9.39061 11.1595C8.23177 10.1205 5.60107 7.7229 1.4985 3.96665L1.53846 3.94667C1.59174 3.93335 1.6317 3.92669 1.65834 3.92669ZM0.839161 16.4142V4.76586C0.839161 4.71257 0.852481 4.63932 0.879121 4.54607V4.5261C3.67632 7.08354 5.88079 9.09486 7.49251 10.5601C5.92075 11.9054 3.71628 13.93 0.879121 16.634L0.859141 16.614C0.845821 16.5341 0.839161 16.4675 0.839161 16.4142ZM18.3417 17.2534H1.65834C1.6317 17.2534 1.58508 17.2467 1.51848 17.2334L1.47852 17.2134C4.35564 14.4695 6.56677 12.4382 8.11189 11.1195L8.83117 11.7788C9.19081 12.0985 9.58042 12.2584 10 12.2584C10.4196 12.2584 10.8092 12.0985 11.1688 11.7788L11.8881 11.1195C13.4332 12.4515 15.6444 14.4828 18.5215 17.2134L18.4815 17.2334C18.4149 17.2467 18.3683 17.2534 18.3417 17.2534ZM19.1608 16.4142C19.1608 16.4675 19.1542 16.5341 19.1409 16.614L19.1209 16.634C16.2837 13.93 14.0793 11.9054 12.5075 10.5601C14.1325 9.08154 16.337 7.07022 19.1209 4.5261V4.54607C19.1475 4.63932 19.1608 4.71257 19.1608 4.76586V16.4142Z" fill="#9867FF"/>
</g>
<defs>
<clipPath id="clip0_52_2057">
<rect width="20" height="20" fill="white" transform="matrix(1 0 0 -1 0 20.5901)"/>
</clipPath>
</defs>
</svg>
