<svg width="69" height="69" viewBox="0 0 69 69" fill="none" xmlns="http://www.w3.org/2000/svg">
<rect x="0.5" y="0.5" width="68" height="68" rx="34" fill="white"/>
<path d="M38.1698 43.4452L43.2521 48.5276C44.6639 49.9393 47.1109 49.9393 48.5227 48.5276C50.0286 47.1159 50.0286 44.6688 48.5227 43.2569L43.4403 38.1747C44.3815 36.3864 44.9462 34.3159 44.9462 32.1511C44.9462 31.7746 44.9462 31.3982 44.8521 31.1158L48.3345 27.6335C48.7109 27.257 48.7109 26.6923 48.3345 26.3158C47.9579 25.9393 47.3933 25.9393 47.0169 26.3158L44.4757 28.857C43.9109 26.6923 42.7815 24.8099 41.1815 23.2099C36.1933 18.2217 28.1933 18.2217 23.205 23.2099C18.2168 28.1982 18.2168 36.1981 23.205 41.1864C27.3462 45.3276 33.4639 45.9864 38.1698 43.4452ZM47.1109 44.5747C47.8639 45.3276 47.8639 46.4569 47.1109 47.2099C46.3579 47.9629 45.2286 47.9629 44.4757 47.2099L39.6757 42.4099C40.1462 42.0335 40.6169 41.6569 41.0874 41.1864C41.5579 40.7159 41.9345 40.2452 42.3109 39.7747L47.1109 44.5747ZM24.5227 24.5276C28.758 20.2923 35.6286 20.2923 39.8639 24.5276C41.4639 26.1276 42.4991 28.1982 42.8757 30.457L40.9933 32.3393L37.8874 29.2335C37.5109 28.857 36.9462 28.857 36.5698 29.2335L31.6756 34.1276L29.5109 31.9629C29.1345 31.5864 28.5698 31.5864 28.1933 31.9629L24.4286 35.7276C24.0521 36.104 24.0521 36.6688 24.4286 37.0452C24.805 37.4217 25.3698 37.4217 25.7462 37.0452L28.8521 33.9393C30.2639 35.0688 31.2992 37.1393 32.3345 36.104L37.2286 31.2099L40.3345 34.3159C40.711 34.6923 41.2757 34.6923 41.6521 34.3159L42.9698 32.9981C42.7815 35.6335 41.6521 37.9864 39.8639 39.8688C35.6286 44.104 28.758 44.104 24.5227 39.8688C20.2874 35.6335 20.2874 28.7629 24.5227 24.5276Z" fill="#222737"/>
</svg>
