<svg width="12" height="12" viewBox="0 0 12 12" fill="none" xmlns="http://www.w3.org/2000/svg">
<path d="M3.08384 0.542003C2.988 0.584627 2.9028 0.648563 2.82826 0.733811C2.75371 0.819059 2.70579 0.904307 2.68449 0.989555C2.64189 1.1494 2.64189 1.31456 2.68449 1.48506C2.70579 1.55965 2.75105 1.63957 2.82027 1.72482C2.88949 1.81007 2.9667 1.87933 3.05189 1.93261L3.19566 2.01253L8.93034 2.02852L1.59826 9.38116C1.09774 9.882 0.74897 10.239 0.551956 10.4521C0.354943 10.6652 0.229813 10.8144 0.176567 10.8996C0.144619 10.9636 0.133969 11.0328 0.144619 11.1074V11.1714C0.133969 11.4058 0.211177 11.5949 0.376242 11.7388C0.541307 11.8827 0.730333 11.9493 0.94332 11.9386L0.991242 11.9546C1.06579 11.9546 1.13501 11.9386 1.1989 11.9066C1.2841 11.8427 1.44118 11.7068 1.67014 11.499C1.8991 11.2913 2.26917 10.9263 2.78033 10.4041L10.0325 3.16338L10.0485 6.00854C10.0485 7.32988 10.0512 8.13707 10.0565 8.43011C10.0618 8.72315 10.0751 8.89631 10.0964 8.94959C10.1816 9.13075 10.3148 9.26661 10.4958 9.35719C10.6768 9.44776 10.8632 9.46108 11.0549 9.39715C11.204 9.36518 11.3291 9.29059 11.4303 9.17337C11.5314 9.05615 11.5927 8.92295 11.614 8.77377C11.6353 8.65655 11.6406 7.34054 11.63 4.82572V1.05349L11.5661 0.925619C11.4809 0.744467 11.3477 0.605939 11.1667 0.510035L11.0389 0.446098H3.25956L3.08384 0.542003Z" fill="#9867FF"/>
</svg>
