<svg width="11" height="11" viewBox="0 0 11 11" fill="none" xmlns="http://www.w3.org/2000/svg">
<path d="M2.84974 0.424265C2.76589 0.461561 2.69135 0.517504 2.62613 0.592096C2.56091 0.666688 2.51898 0.741281 2.50034 0.815873C2.46307 0.955733 2.46307 1.10026 2.50034 1.24944C2.51898 1.31471 2.55858 1.38464 2.61914 1.45923C2.6797 1.53382 2.74725 1.59443 2.82179 1.64105L2.94758 1.71098L7.96497 1.72496L1.54997 8.15853C1.11206 8.59676 0.806912 8.90911 0.634541 9.09559C0.46217 9.28207 0.352691 9.41261 0.306104 9.4872C0.278152 9.54315 0.268835 9.60375 0.278152 9.66902V9.72496C0.268835 9.93009 0.336386 10.0956 0.480805 10.2215C0.625224 10.3473 0.790607 10.4056 0.976954 10.3963L1.01888 10.4103C1.0841 10.4103 1.14467 10.3963 1.20057 10.3683C1.27511 10.3124 1.41254 10.1935 1.61286 10.0117C1.81319 9.82986 2.13697 9.51051 2.5842 9.05364L8.92932 2.71797L8.9433 5.20748C8.9433 6.36366 8.94563 7.06995 8.95028 7.32636C8.95494 7.58277 8.96659 7.73429 8.98522 7.78091C9.05976 7.93942 9.17623 8.0583 9.33463 8.13755C9.49302 8.21681 9.65607 8.22846 9.82379 8.17252C9.95423 8.14454 10.0637 8.07928 10.1522 7.97671C10.2407 7.87415 10.2943 7.7576 10.3129 7.62706C10.3316 7.5245 10.3362 6.37298 10.3269 4.17252V0.871817L10.271 0.759929C10.1965 0.601421 10.08 0.480209 9.92162 0.396293L9.80981 0.340348H3.00348L2.84974 0.424265Z" fill="#222737"/>
</svg>
