<svg width="17" height="17" viewBox="0 0 17 17" fill="none" xmlns="http://www.w3.org/2000/svg">
<g clip-path="url(#clip0_52_1704)">
<path d="M13.267 2.09248V1.59698C13.267 1.45845 13.219 1.33857 13.1232 1.23734C13.0274 1.13611 12.9102 1.08549 12.7718 1.08549C12.6333 1.08549 12.5162 1.13611 12.4203 1.23734C12.3245 1.33857 12.2766 1.45845 12.2766 1.59698V2.09248H8.77826V1.59698C8.77826 1.45845 8.72768 1.33857 8.62651 1.23734C8.52534 1.13611 8.4082 1.08549 8.27508 1.08549C8.14196 1.08549 8.02482 1.13611 7.92365 1.23734C7.82248 1.33857 7.7719 1.45845 7.7719 1.59698V2.09248H4.27358V1.59698C4.27358 1.45845 4.22566 1.33857 4.12982 1.23734C4.03397 1.13611 3.91683 1.08549 3.77839 1.08549C3.63995 1.08549 3.5228 1.13611 3.42696 1.23734C3.33111 1.33857 3.28319 1.45845 3.28319 1.59698V2.09248C2.82527 2.09248 2.40462 2.20437 2.02124 2.42815C1.63787 2.65193 1.33436 2.95562 1.11072 3.33924C0.887087 3.72285 0.775269 4.13844 0.775269 4.58599V13.585C0.775269 14.0432 0.887087 14.4641 1.11072 14.8477C1.33436 15.2313 1.63787 15.535 2.02124 15.7588C2.40462 15.9826 2.82527 16.0945 3.28319 16.0945H13.267C13.7249 16.0945 14.1455 15.9826 14.5289 15.7588C14.9123 15.535 15.2158 15.2313 15.4394 14.8477C15.6631 14.4641 15.7749 14.0432 15.7749 13.585V4.58599C15.7749 4.13844 15.6631 3.72285 15.4394 3.33924C15.2158 2.95562 14.9123 2.65193 14.5289 2.42815C14.1455 2.20437 13.7249 2.09248 13.267 2.09248ZM3.28319 3.08349V3.59498C3.28319 3.73351 3.33111 3.85073 3.42696 3.94663C3.5228 4.04253 3.63995 4.09049 3.77839 4.09049C3.91683 4.09049 4.03397 4.04253 4.12982 3.94663C4.22566 3.85073 4.27358 3.73351 4.27358 3.59498V3.08349H7.7719V3.59498C7.7719 3.73351 7.82248 3.85073 7.92365 3.94663C8.02482 4.04253 8.14196 4.09049 8.27508 4.09049C8.4082 4.09049 8.52534 4.04253 8.62651 3.94663C8.72768 3.85073 8.77826 3.73351 8.77826 3.59498V3.08349H12.2766V3.59498C12.2766 3.73351 12.3245 3.85073 12.4203 3.94663C12.5162 4.04253 12.6333 4.09049 12.7718 4.09049C12.9102 4.09049 13.0274 4.04253 13.1232 3.94663C13.219 3.85073 13.267 3.73351 13.267 3.59498V3.08349C13.6823 3.08349 14.0364 3.23001 14.3292 3.52305C14.6221 3.81609 14.7685 4.17041 14.7685 4.58599V5.09748H1.78163V4.58599C1.78163 4.17041 1.92806 3.81609 2.22092 3.52305C2.51378 3.23001 2.86787 3.08349 3.28319 3.08349ZM13.267 15.0875H3.28319C2.86787 15.0875 2.51378 14.941 2.22092 14.6479C1.92806 14.3549 1.78163 14.0006 1.78163 13.585V6.08849H14.7685V13.585C14.7685 14.0006 14.6221 14.3549 14.3292 14.6479C14.0364 14.941 13.6823 15.0875 13.267 15.0875Z" fill="#9867FF"/>
</g>
<defs>
<clipPath id="clip0_52_1704">
<rect width="16.01" height="16" fill="white" transform="matrix(1 0 0 -1 0.27002 16.5901)"/>
</clipPath>
</defs>
</svg>
