<svg width="69" height="69" viewBox="0 0 69 69" fill="none" xmlns="http://www.w3.org/2000/svg">
<rect x="0.5" y="0.5" width="68" height="68" rx="34" fill="white"/>
<path d="M42.063 20.3394C41.8872 20.1621 41.6474 20.0625 41.3977 20.0625C41.1479 20.0625 40.9084 20.1624 40.7324 20.3396L37.9629 23.1306C37.7795 23.3152 37.5361 23.417 37.2778 23.417C37.081 23.417 32.3737 23.417 31.5488 23.417C31.2902 23.417 31.0471 23.3152 30.862 23.1292L28.1411 20.4006C27.9653 20.2241 27.7263 20.125 27.4773 20.125C27.477 20.125 27.4775 20.125 27.4773 20.125C27.2277 20.1252 26.9878 20.2251 26.812 20.4021L18.7097 28.5642C18.3461 28.9304 18.3469 29.5215 18.7114 29.887L21.0351 32.2151C21.4753 32.6587 21.7177 33.2488 21.7177 33.877C21.7177 34.6897 21.9458 35.4671 22.3696 36.1367C21.4472 37.2583 21.5068 38.9287 22.5493 39.9788C23.0539 40.4873 23.7148 40.7813 24.4235 40.816C24.456 41.5015 24.7314 42.1773 25.2499 42.6995C25.7546 43.208 26.4155 43.502 27.1245 43.5367C27.1567 44.2222 27.4323 44.898 27.9506 45.4202C28.7668 46.2425 29.9379 46.4498 30.927 46.0945C31.0632 46.4881 31.2868 46.8572 31.5984 47.1709C32.7114 48.2925 34.5163 48.2928 35.6296 47.1709L36.0254 46.7725C36.2727 46.5232 36.4643 46.2388 36.601 45.9353C37.7082 46.9136 39.4148 46.8919 40.4936 45.805C41.0122 45.2828 41.2876 44.607 41.3198 43.9214C42.0285 43.887 42.6897 43.5928 43.1943 43.0843C43.7129 42.562 43.9883 41.8863 44.0207 41.2007C44.7292 41.1663 45.3904 40.8721 45.895 40.3638C46.9316 39.3196 46.9968 37.6616 46.0906 36.5401C46.751 35.6096 47.1086 34.499 47.1086 33.3328C47.1086 33.0596 47.2182 32.7925 47.4094 32.5999L50.1653 29.8225C50.5281 29.457 50.5281 28.8672 50.1653 28.5017L42.063 20.3394ZM23.8801 37.2581L25.2304 35.8977C25.6096 35.5157 26.2209 35.5154 26.6003 35.8977C26.9836 36.2837 26.9836 36.9116 26.6003 37.2974L25.2499 38.658C24.8706 39.0401 24.2595 39.0401 23.8801 38.658C23.497 38.272 23.497 37.6441 23.8801 37.2581ZM26.5808 39.9788L29.2815 37.2581C29.6608 36.876 30.2722 36.8758 30.6516 37.2581C31.0346 37.6441 31.0346 38.272 30.6516 38.658C29.6889 39.6277 29.6377 39.6792 27.9506 41.3787C27.5712 41.7605 26.9602 41.7608 26.5808 41.3785C26.1977 40.9927 26.1977 40.3648 26.5808 39.9788ZM29.2815 44.0992C28.8984 43.7134 28.8984 43.0855 29.2815 42.6995L30.6318 41.3391C31.0112 40.9571 31.6225 40.9571 32.0019 41.3391C32.3557 41.6956 32.382 42.2578 32.0822 42.646C31.9997 42.7222 32.1225 42.5996 30.6516 44.0992C30.2722 44.4815 29.6611 44.4817 29.2815 44.0992ZM34.6948 45.4515L34.299 45.8499C33.9196 46.2322 33.3086 46.2322 32.9292 45.8499C32.58 45.4983 32.55 44.9463 32.8371 44.5591C33.3518 44.0389 33.3266 44.0696 33.4162 43.9715C33.799 43.6705 34.3457 43.7002 34.6948 44.0518C35.0778 44.4378 35.0776 45.0657 34.6948 45.4515ZM44.5644 39.0428C44.185 39.4248 43.5737 39.4248 43.1943 39.0428L41.4485 37.284C41.0837 36.9165 40.49 36.9143 40.1225 37.2791C39.7551 37.6438 39.7529 38.2373 40.1177 38.6048L41.8637 40.3636C42.2468 40.7495 42.2468 41.3775 41.8637 41.7632C41.4844 42.1455 40.873 42.1455 40.4936 41.7632L38.7478 40.0044C38.3828 39.637 37.7893 39.6348 37.4218 39.9995C37.0544 40.3643 37.0522 40.958 37.417 41.3255L39.1628 43.0843C39.5461 43.4703 39.5461 44.0982 39.1628 44.4839C38.7837 44.8663 38.1723 44.8663 37.7927 44.4839C35.9548 42.6475 36.0429 42.6878 35.8579 42.576C35.3803 42.1648 34.7888 41.9265 34.1584 41.8943C34.1245 41.2115 33.8491 40.5386 33.3327 40.0181C33.0678 39.7515 32.7597 39.544 32.4245 39.4019C33.0603 38.3074 32.913 36.8748 31.9821 35.9373C31.028 34.9761 29.6008 34.8596 28.5366 35.4829C28.3986 35.1536 28.1972 34.8448 27.9311 34.5769C26.8178 33.4553 25.0131 33.4553 23.8996 34.5769L23.7502 34.7276C23.6472 34.46 23.5927 34.1726 23.5927 33.877C23.5927 32.7505 23.1569 31.6914 22.364 30.8924L20.6977 29.2229L27.4787 22.3916L29.5329 24.4514C29.9919 24.9138 30.5805 25.1982 31.2165 25.272L27.0271 30.2991C26.6958 30.697 26.7495 31.2881 27.1472 31.6194C28.1088 32.4209 29.3252 32.8001 30.572 32.6868C31.8186 32.5735 32.9467 31.9815 33.7492 31.0183C34.0849 30.6155 34.6496 30.4942 35.123 30.7227C36.0891 31.1895 37.1508 31.3599 38.1953 31.2266L44.5644 37.6429C44.9475 38.0288 44.9475 38.6568 44.5644 39.0428ZM46.0788 31.2788C45.5337 31.8279 45.2336 32.5574 45.2336 33.3328C45.2336 33.9871 45.0639 34.6145 44.7471 35.1653L40.1872 30.572C41.1194 30.0535 41.8838 29.2739 42.3908 28.3076C42.6313 27.8491 42.4546 27.2825 41.9961 27.042C41.5376 26.8013 40.9709 26.978 40.7304 27.4365C40.2217 28.4063 39.3484 29.0535 38.3701 29.2932C38.3271 29.2998 38.2844 29.3091 38.2426 29.3218C37.4909 29.4773 36.685 29.395 35.9387 29.0344C34.6889 28.4307 33.1965 28.7529 32.3078 29.8194C31.8269 30.3963 31.1501 30.7515 30.4023 30.8196C29.9773 30.8582 29.5583 30.8013 29.1696 30.657L33.5097 25.4482C33.8498 25.3445 34.2024 25.2839 34.5578 25.2839H37.2778C38.0395 25.2839 38.7553 24.9934 39.2937 24.4514L41.3979 22.3308L48.1792 29.1621L46.0788 31.2788Z" fill="#222737"/>
</svg>
