<svg width="16" height="17" viewBox="0 0 16 17" fill="none" xmlns="http://www.w3.org/2000/svg">
<path d="M7.47437 0.532084C6.58992 0.627988 5.78007 0.937011 5.0448 1.45916C4.30954 1.9813 3.7501 2.64197 3.36648 3.44117C3.18533 3.82479 3.0468 4.24037 2.9509 4.68793C2.91893 4.84777 2.89762 4.97564 2.88696 5.07154C2.87631 5.16745 2.87098 5.37258 2.87098 5.68693C2.87098 6.00128 2.87631 6.20907 2.88696 6.3103C2.89762 6.41154 2.91893 6.53675 2.9509 6.68593C3.08943 7.33595 3.33451 7.93801 3.68616 8.49212C4.24027 9.3446 4.78373 10.1971 5.31653 11.0496C5.31653 11.0709 5.24727 11.0922 5.10874 11.1135C4.78906 11.1668 4.43208 11.244 4.03781 11.3453C3.64354 11.4465 3.3132 11.5504 3.0468 11.657C2.36482 11.9234 1.85066 12.2271 1.50434 12.568C1.15802 12.909 0.984863 13.282 0.984863 13.6869C0.984863 13.8894 1.02216 14.0732 1.09675 14.2384C1.17134 14.4035 1.28856 14.5714 1.4484 14.7419C1.86398 15.1894 2.50867 15.5571 3.38247 15.8448C4.25626 16.1325 5.32719 16.3349 6.59525 16.4522C6.851 16.4735 7.32253 16.4841 8.00984 16.4841C8.69715 16.4841 9.16335 16.4735 9.40844 16.4522C10.9855 16.303 12.2643 16.0259 13.2446 15.621C13.9372 15.3226 14.4354 14.963 14.7391 14.5421C15.0428 14.1212 15.1147 13.6816 14.9549 13.2234C14.9123 13.1062 14.8617 13.0023 14.803 12.9117C14.7444 12.8211 14.6565 12.7172 14.5393 12.6C14.2516 12.291 13.8254 12.0166 13.2606 11.7768C12.6958 11.5371 12.0351 11.3373 11.2786 11.1774C11.1081 11.1455 10.9322 11.1135 10.7511 11.0815C10.7191 11.0815 10.7031 11.0762 10.7031 11.0655C10.7031 11.0549 10.9296 10.6926 11.3825 9.97864C11.8353 9.26468 12.1524 8.76918 12.3335 8.49212C12.7704 7.83145 13.0341 7.10951 13.1247 6.32629C13.2153 5.54307 13.1327 4.77318 12.877 4.0166C12.6212 3.26002 12.2136 2.59935 11.6542 2.03458C11.0948 1.46981 10.4527 1.05689 9.72812 0.795819C9.00351 0.534747 8.25226 0.446835 7.47437 0.532084ZM8.38546 1.45916C9.11007 1.53375 9.7814 1.77884 10.3994 2.19442C10.5593 2.30098 10.7511 2.46615 10.9749 2.68993C11.1986 2.9137 11.3638 3.10551 11.4704 3.26535C11.7474 3.68093 11.9499 4.1125 12.0778 4.56006C12.1311 4.75186 12.1657 4.92502 12.1817 5.07954C12.1977 5.23405 12.2056 5.43918 12.2056 5.69492C12.2056 5.98263 12.1897 6.22239 12.1577 6.4142C12.1257 6.60601 12.0724 6.82446 11.9979 7.06955C11.9339 7.26135 11.8593 7.43718 11.7741 7.59702C11.6888 7.75686 11.5556 7.97531 11.3745 8.25236L9.53631 11.1135C8.53465 12.6906 8.02582 13.4791 8.00984 13.4791C7.99385 13.4791 7.4797 12.6906 6.46738 11.1135L4.6452 8.25236C4.43208 7.92203 4.29355 7.68759 4.22962 7.54907C3.98453 7.06955 3.84334 6.54474 3.80604 5.97464C3.76875 5.40454 3.84067 4.85842 4.02183 4.33628C4.18167 3.85676 4.42143 3.41986 4.74111 3.02559C5.06079 2.63132 5.43375 2.30098 5.85999 2.03458C6.2436 1.8108 6.6512 1.6483 7.08277 1.54707C7.51433 1.44584 7.94857 1.41653 8.38546 1.45916ZM7.6502 3.37724C7.12805 3.46249 6.6805 3.69692 6.30754 4.08053C5.90261 4.49612 5.68949 4.99162 5.66818 5.56705C5.64687 6.12116 5.79605 6.61667 6.11573 7.05356C6.45672 7.52243 6.91493 7.82612 7.49036 7.96465C7.63954 8.00727 7.8127 8.02859 8.00984 8.02859C8.20697 8.02859 8.38013 8.00727 8.52932 7.96465C8.98753 7.85809 9.37647 7.63964 9.69615 7.30931C10.0158 6.97897 10.2183 6.59003 10.3035 6.14247C10.3888 5.69492 10.3488 5.25802 10.1837 4.83178C10.0185 4.40554 9.74943 4.05922 9.37647 3.79282C9.14204 3.63298 8.88629 3.51044 8.60924 3.42519C8.53465 3.40388 8.37747 3.38523 8.13771 3.36925C7.89795 3.35326 7.73545 3.35593 7.6502 3.37724ZM8.48137 4.36825C8.75842 4.46415 8.9822 4.63198 9.1527 4.87174C9.32319 5.1115 9.40844 5.3859 9.40844 5.69492C9.40844 6.08919 9.25926 6.42486 8.96089 6.70191C8.73711 6.91503 8.48669 7.04024 8.20964 7.07754C7.93258 7.11483 7.66085 7.06422 7.39445 6.92569C7.2133 6.82979 7.05613 6.68593 6.92292 6.49412C6.78972 6.30231 6.70714 6.09985 6.67517 5.88673C6.62189 5.54574 6.69382 5.22606 6.89096 4.92769C7.08809 4.62932 7.35716 4.42686 7.69815 4.3203C7.79405 4.29898 7.92193 4.29099 8.08177 4.29632C8.24161 4.30165 8.37481 4.32562 8.48137 4.36825ZM6.73911 13.2713C7.31453 14.1664 7.62356 14.6406 7.66618 14.6939C7.75143 14.8005 7.86332 14.8538 8.00185 14.8538C8.14037 14.8538 8.25759 14.8058 8.35349 14.7099C8.38546 14.6673 8.68916 14.1984 9.26458 13.3033L10.1277 11.9607H10.2396C10.4634 11.982 10.7884 12.0379 11.2146 12.1285C11.6409 12.2191 12.0032 12.3123 12.3015 12.4082C13.1967 12.7066 13.7667 13.0476 14.0118 13.4312C14.1397 13.623 14.1237 13.8228 13.9639 14.0306C13.804 14.2384 13.5057 14.4488 13.0688 14.662C12.195 15.0882 11.0068 15.3706 9.50434 15.5091C9.19532 15.5304 8.71846 15.5437 8.07377 15.5491C7.42909 15.5544 6.95756 15.5464 6.65919 15.5251C5.09276 15.3866 3.85666 15.0988 2.9509 14.662C2.52466 14.4488 2.22895 14.2384 2.06378 14.0306C1.89862 13.8228 1.87997 13.623 2.00784 13.4312C2.16768 13.1754 2.4847 12.933 2.95889 12.7039C3.43308 12.4748 4.0165 12.2857 4.70914 12.1365C4.87964 12.1045 5.09276 12.0672 5.3485 12.0246C5.60424 11.982 5.77474 11.9553 5.85999 11.9447C5.8813 11.9447 6.17434 12.3869 6.73911 13.2713Z" fill="white"/>
</svg>
