<svg width="15" height="11" viewBox="0 0 15 11" fill="none" xmlns="http://www.w3.org/2000/svg">
<path d="M13.0662 0.248213H1.70364C1.34026 0.248213 1.03046 0.376417 0.774234 0.632828C0.518006 0.889238 0.389893 1.19926 0.389893 1.5629V9.43702C0.389893 9.80066 0.518006 10.1107 0.774234 10.3671C1.03046 10.6235 1.34026 10.7517 1.70364 10.7517H13.0662C13.4295 10.7517 13.7393 10.6235 13.9956 10.3671C14.2518 10.1107 14.3799 9.80066 14.3799 9.43702V1.5629C14.3799 1.19926 14.2518 0.889238 13.9956 0.632828C13.7393 0.376417 13.4295 0.248213 13.0662 0.248213ZM1.70364 1.12933H13.0662C13.1873 1.12933 13.2898 1.17129 13.3736 1.25521C13.4575 1.33912 13.4994 1.44169 13.4994 1.5629V2.69576C12.8658 3.23656 11.4962 4.34145 9.39046 6.01045L9.11094 6.23423C8.74756 6.55124 8.46338 6.77502 8.2584 6.90556C7.90434 7.13866 7.61317 7.25521 7.3849 7.25521C7.15662 7.25521 6.8608 7.13866 6.49742 6.90556C6.29244 6.7657 6.00826 6.54192 5.64488 6.23423L5.37934 6.01045C3.27362 4.34145 1.90396 3.23656 1.27038 2.69576V1.5629C1.27038 1.44169 1.31231 1.33912 1.39617 1.25521C1.48002 1.17129 1.58251 1.12933 1.70364 1.12933ZM13.0662 9.87059H1.70364C1.58251 9.87059 1.48002 9.82863 1.39617 9.74472C1.31231 9.6608 1.27038 9.55824 1.27038 9.43702V3.82863C1.89465 4.35078 3.08261 5.30649 4.83427 6.69577L5.11379 6.91954C5.54239 7.28318 5.88713 7.54891 6.14802 7.71674C6.59525 7.98714 7.00522 8.12467 7.37791 8.12933C7.75061 8.13399 8.16523 7.99646 8.62178 7.71674C8.87335 7.55824 9.21809 7.29716 9.65601 6.93353L9.93553 6.69577C11.6872 5.30649 12.8752 4.35078 13.4994 3.82863V9.43702C13.4994 9.55824 13.4575 9.6608 13.3736 9.74472C13.2898 9.82863 13.1873 9.87059 13.0662 9.87059Z" fill="white"/>
</svg>
