<svg width="15" height="15" viewBox="0 0 15 15" fill="none" xmlns="http://www.w3.org/2000/svg">
<path d="M2.00858 1.17129C2.27897 0.900898 2.59832 0.719079 2.96662 0.625839C3.33492 0.532599 3.70322 0.537261 4.07152 0.639825C4.43981 0.742389 4.75916 0.933532 5.02956 1.21325L6.42816 2.59787C6.69856 2.87759 6.88504 3.2016 6.9876 3.56989C7.09016 3.93819 7.09716 4.30649 7.00858 4.67479C6.92 5.04309 6.74051 5.36244 6.47012 5.63283L6.27431 5.82864C6.19972 5.90323 6.16009 5.99414 6.15543 6.10136C6.15077 6.20859 6.18107 6.2995 6.24634 6.37409C6.55403 6.75638 6.86639 7.10603 7.1834 7.42304C7.50042 7.74006 7.85007 8.05241 8.23236 8.36011C8.31627 8.4347 8.40951 8.46733 8.51208 8.45801C8.61464 8.44868 8.70322 8.41139 8.77781 8.34612L8.97361 8.15031C9.25333 7.87059 9.57501 7.68645 9.93865 7.59787C10.3023 7.50929 10.6683 7.51628 11.0366 7.61885C11.4049 7.72141 11.7289 7.90789 12.0086 8.17829L13.4072 9.57689C13.6776 9.85661 13.8641 10.1806 13.9666 10.5489C14.0692 10.9172 14.0762 11.2832 13.9876 11.6468C13.899 12.0105 13.7149 12.3321 13.4352 12.6119L12.54 13.507C12.1018 13.9452 11.5237 14.1783 10.8058 14.2063C10.1624 14.2342 9.44914 14.1037 8.66592 13.8147C7.90135 13.5349 7.1228 13.1293 6.33026 12.5979C5.50974 12.0384 4.7242 11.3857 3.97361 10.6398C3.22303 9.8939 2.57268 9.11069 2.02256 8.29017C1.48177 7.48831 1.07152 6.70509 0.791795 5.94052C0.502751 5.15731 0.372215 4.44402 0.400187 3.80066C0.437483 3.08272 0.670583 2.50463 1.09949 2.0664L2.00858 1.17129ZM4.2883 1.95451C4.06452 1.73073 3.80345 1.61652 3.50508 1.61185C3.20671 1.60719 2.95497 1.70742 2.74984 1.91255L1.84075 2.80766C1.60765 3.05008 1.47711 3.39973 1.44914 3.85661C1.43049 4.35078 1.54238 4.92421 1.7848 5.57689C2.03655 6.25754 2.40485 6.96617 2.8897 7.70276C3.40252 8.46733 4.01091 9.19927 4.71487 9.89857C5.41884 10.5979 6.1531 11.2039 6.91767 11.7167C7.64494 12.2109 8.34891 12.5839 9.02956 12.8356C9.69156 13.0781 10.2697 13.1853 10.7638 13.1573C11.2114 13.1387 11.5564 13.0081 11.7988 12.7657L12.6939 11.8706C12.899 11.6655 12.9993 11.4114 12.9946 11.1084C12.9899 10.8053 12.8804 10.5419 12.6659 10.3181L11.2673 8.91955C11.0435 8.70509 10.7801 8.59554 10.4771 8.59087C10.1741 8.58621 9.92 8.68645 9.71487 8.89157L9.53305 9.08738C9.26266 9.34845 8.93865 9.48831 8.56103 9.50696C8.1834 9.52561 7.85007 9.41372 7.56103 9.17129C7.17874 8.85428 6.80811 8.51861 6.44914 8.1643C6.09016 7.80999 5.75217 7.43703 5.43515 7.04542C5.19273 6.75638 5.08084 6.42304 5.09949 6.04542C5.11814 5.6678 5.26266 5.34845 5.53305 5.08738L5.72886 4.89157C5.93399 4.68645 6.03422 4.43237 6.02956 4.12934C6.0249 3.82631 5.91068 3.5629 5.6869 3.33913L4.2883 1.95451ZM8.84774 3.19927C8.90368 3.06873 8.99925 2.97549 9.13445 2.91955C9.26965 2.8636 9.40252 2.8636 9.53305 2.91955C9.99925 3.12467 10.4142 3.40906 10.7778 3.77269C11.1508 4.15498 11.4398 4.59321 11.6449 5.08738C11.7009 5.21791 11.7009 5.35078 11.6449 5.48598C11.589 5.62118 11.4934 5.71675 11.3582 5.77269C11.223 5.82864 11.0902 5.82864 10.9596 5.77269C10.8291 5.71675 10.7359 5.62351 10.6799 5.49297C10.5307 5.12001 10.3116 4.79367 10.0226 4.51395C9.76149 4.24356 9.45846 4.03376 9.11347 3.88458C8.98294 3.82864 8.8897 3.73307 8.83375 3.59787C8.77781 3.46267 8.78247 3.3298 8.84774 3.19927ZM8.83375 0.849615C8.88037 0.709755 8.96895 0.609522 9.09949 0.548916C9.23002 0.48831 9.36522 0.481317 9.50508 0.527937C10.5494 0.910221 11.4678 1.49763 12.2603 2.29017C13.0622 3.09204 13.6543 4.03376 14.0366 5.11535C14.0738 5.19927 14.0832 5.29017 14.0645 5.38808C14.0459 5.48598 14.0062 5.56989 13.9456 5.63982C13.885 5.70975 13.8104 5.76104 13.7219 5.79367C13.6333 5.82631 13.5424 5.8333 13.4491 5.81465C13.3559 5.796 13.272 5.75404 13.1974 5.68878C13.1228 5.62351 13.0715 5.54892 13.0435 5.465C12.7172 4.5326 12.209 3.72141 11.5191 3.03143C10.8384 2.35078 10.0459 1.84728 9.14145 1.52094C9.01091 1.47432 8.91534 1.38341 8.85473 1.24822C8.79413 1.11302 8.78713 0.980151 8.83375 0.849615Z" fill="white"/>
</svg>
