<svg width="37" height="28" viewBox="0 0 37 28" fill="none" xmlns="http://www.w3.org/2000/svg">
<path d="M14.3967 0.495497H4.29078C3.35571 0.495497 2.55851 0.825167 1.89917 1.48451C1.23983 2.14385 0.910156 2.94105 0.910156 3.87612V13.982C0.910156 14.9171 1.23983 15.7143 1.89917 16.3736C2.55851 17.033 3.35571 17.3626 4.29078 17.3626H8.82224L7.13193 26.1738C7.06001 26.5095 7.13793 26.8152 7.3657 27.0909C7.59347 27.3666 7.87519 27.5045 8.21086 27.5045H11.8792C12.3587 27.5045 12.7963 27.3606 13.1919 27.0729C13.5875 26.7852 13.8572 26.4016 14.0011 25.9221L17.3457 18.0459C17.6334 16.943 17.7773 15.8282 17.7773 14.7013V3.87612C17.7773 2.94105 17.4476 2.14385 16.7883 1.48451C16.1289 0.825167 15.3317 0.495497 14.3967 0.495497ZM15.5475 14.7013C15.5475 15.6124 15.4276 16.4995 15.1879 17.3626L11.8792 25.2388H9.57749L11.3038 16.4635C11.3757 16.1279 11.2978 15.8222 11.07 15.5464C10.8422 15.2707 10.5485 15.1329 10.1889 15.1329H4.29078C3.97909 15.1329 3.71535 15.019 3.49957 14.7912C3.28378 14.5634 3.17589 14.3057 3.17589 14.018V3.87612C3.17589 3.56443 3.28378 3.30069 3.49957 3.08491C3.71535 2.86912 3.97909 2.76123 4.29078 2.76123H14.3967C14.7084 2.76123 14.9781 2.86912 15.2059 3.08491C15.4336 3.30069 15.5475 3.56443 15.5475 3.87612V14.7013ZM33.5295 0.495497H23.4236C22.4886 0.495497 21.6914 0.825167 21.032 1.48451C20.3727 2.14385 20.043 2.94105 20.043 3.87612V13.982C20.043 14.9171 20.3727 15.7143 21.032 16.3736C21.6914 17.033 22.4886 17.3626 23.4236 17.3626H27.9551L26.2288 26.1738C26.1809 26.5095 26.2708 26.8152 26.4986 27.0909C26.7263 27.3666 27.0081 27.5045 27.3437 27.5045H30.9761C31.4796 27.5045 31.9291 27.3606 32.3247 27.0729C32.7203 26.7852 32.9901 26.4016 33.1339 25.9221L36.4426 18.0459C36.7543 16.943 36.9102 15.8282 36.9102 14.7013V3.87612C36.9102 2.94105 36.5805 2.14385 35.9211 1.48451C35.2618 0.825167 34.4646 0.495497 33.5295 0.495497ZM34.6444 14.7013C34.6444 15.6124 34.5365 16.4995 34.3207 17.3626L30.9761 25.2388H28.7104L30.4366 16.4635C30.4846 16.1279 30.3947 15.8222 30.1669 15.5464C29.9391 15.2707 29.6574 15.1329 29.3217 15.1329H23.4236C23.112 15.1329 22.8422 15.019 22.6145 14.7912C22.3867 14.5634 22.2728 14.3057 22.2728 14.018V3.87612C22.2728 3.56443 22.3867 3.30069 22.6145 3.08491C22.8422 2.86912 23.112 2.76123 23.4236 2.76123H33.5295C33.8412 2.76123 34.105 2.86912 34.3207 3.08491C34.5365 3.30069 34.6444 3.56443 34.6444 3.87612V14.7013Z" fill="white"/>
</svg>
