<svg width="81" height="81" viewBox="0 0 81 81" fill="none" xmlns="http://www.w3.org/2000/svg">
<rect x="0.910156" y="0.5" width="80" height="80.5" rx="40" fill="#9867FF"/>
<g clip-path="url(#clip0_52_806)">
<path d="M36.3967 27.4955H26.2908C25.3557 27.4955 24.5585 27.8252 23.8992 28.4845C23.2398 29.1438 22.9102 29.9411 22.9102 30.8761V40.982C22.9102 41.9171 23.2398 42.7143 23.8992 43.3736C24.5585 44.033 25.3557 44.3626 26.2908 44.3626H30.8222L29.1319 53.1738C29.06 53.5095 29.1379 53.8152 29.3657 54.0909C29.5935 54.3666 29.8752 54.5045 30.2109 54.5045H33.8792C34.3587 54.5045 34.7963 54.3606 35.1919 54.0729C35.5875 53.7852 35.8572 53.4016 36.0011 52.9221L39.3457 45.0459C39.6334 43.943 39.7773 42.8282 39.7773 41.7013V30.8761C39.7773 29.9411 39.4476 29.1438 38.7883 28.4845C38.1289 27.8252 37.3317 27.4955 36.3967 27.4955ZM37.5475 41.7013C37.5475 42.6124 37.4276 43.4995 37.1879 44.3626L33.8792 52.2388H31.5775L33.3038 43.4635C33.3757 43.1279 33.2978 42.8222 33.07 42.5464C32.8422 42.2707 32.5485 42.1329 32.1889 42.1329H26.2908C25.9791 42.1329 25.7154 42.019 25.4996 41.7912C25.2838 41.5634 25.1759 41.3057 25.1759 41.018V30.8761C25.1759 30.5644 25.2838 30.3007 25.4996 30.0849C25.7154 29.8691 25.9791 29.7612 26.2908 29.7612H36.3967C36.7084 29.7612 36.9781 29.8691 37.2059 30.0849C37.4336 30.3007 37.5475 30.5644 37.5475 30.8761V41.7013ZM55.5295 27.4955H45.4236C44.4886 27.4955 43.6914 27.8252 43.032 28.4845C42.3727 29.1438 42.043 29.9411 42.043 30.8761V40.982C42.043 41.9171 42.3727 42.7143 43.032 43.3736C43.6914 44.033 44.4886 44.3626 45.4236 44.3626H49.9551L48.2288 53.1738C48.1809 53.5095 48.2708 53.8152 48.4986 54.0909C48.7263 54.3666 49.0081 54.5045 49.3437 54.5045H52.9761C53.4796 54.5045 53.9291 54.3606 54.3247 54.0729C54.7203 53.7852 54.9901 53.4016 55.1339 52.9221L58.4426 45.0459C58.7543 43.943 58.9102 42.8282 58.9102 41.7013V30.8761C58.9102 29.9411 58.5805 29.1438 57.9211 28.4845C57.2618 27.8252 56.4646 27.4955 55.5295 27.4955ZM56.6444 41.7013C56.6444 42.6124 56.5365 43.4995 56.3207 44.3626L52.9761 52.2388H50.7104L52.4366 43.4635C52.4846 43.1279 52.3947 42.8222 52.1669 42.5464C51.9391 42.2707 51.6574 42.1329 51.3217 42.1329H45.4236C45.112 42.1329 44.8422 42.019 44.6145 41.7912C44.3867 41.5634 44.2728 41.3057 44.2728 41.018V30.8761C44.2728 30.5644 44.3867 30.3007 44.6145 30.0849C44.8422 29.8691 45.112 29.7612 45.4236 29.7612H55.5295C55.8412 29.7612 56.105 29.8691 56.3207 30.0849C56.5365 30.3007 56.6444 30.5644 56.6444 30.8761V41.7013Z" fill="white"/>
</g>
<defs>
<clipPath id="clip0_52_806">
<rect width="36" height="36" fill="white" transform="matrix(1 0 0 -1 22.9102 59)"/>
</clipPath>
</defs>
</svg>
