<svg width="13" height="13" viewBox="0 0 13 13" fill="none" xmlns="http://www.w3.org/2000/svg">
<path d="M5.29323 0.751603C5.29323 0.639714 5.25927 0.535818 5.19134 0.439915C5.1234 0.34401 5.03349 0.278076 4.92161 0.242112C4.80972 0.206148 4.69783 0.20415 4.58594 0.236118C4.47405 0.268086 4.38214 0.332023 4.31022 0.427926L0.510017 5.31904C0.430097 5.42293 0.390137 5.53682 0.390137 5.66069C0.390137 5.78457 0.430097 5.89446 0.510017 5.99036L4.31022 10.8935C4.38214 10.9814 4.47405 11.0433 4.58594 11.0793C4.69783 11.1152 4.80972 11.1132 4.92161 11.0733C5.03349 11.0333 5.1234 10.9654 5.19134 10.8695C5.25927 10.7736 5.29323 10.6697 5.29323 10.5578V8.38797C6.64388 8.41194 7.76276 8.54781 8.64988 8.79556C9.36916 8.99536 9.9286 9.26709 10.3282 9.61074C10.536 9.78657 10.7078 9.98637 10.8437 10.2101C10.9476 10.402 11.0355 10.6217 11.1074 10.8695C11.1474 11.0213 11.1953 11.2531 11.2513 11.5648L11.2872 11.7446C11.3112 11.8805 11.3771 11.9904 11.485 12.0743C11.5929 12.1582 11.7168 12.1962 11.8567 12.1882C11.9965 12.1802 12.1144 12.1282 12.2103 12.0323C12.3062 11.9364 12.3582 11.8165 12.3662 11.6727C12.4221 10.7696 12.3821 9.89846 12.2463 9.0593C12.0705 7.97238 11.7428 7.02133 11.2633 6.20615C10.7118 5.2551 9.97655 4.50785 9.05747 3.96439C8.01851 3.34901 6.76376 3.00935 5.29323 2.94541V0.751603Z" fill="white"/>
</svg>
