<svg width="69" height="69" viewBox="0 0 69 69" fill="none" xmlns="http://www.w3.org/2000/svg">
<rect x="0.5" y="0.5" width="68" height="68" rx="34" fill="white"/>
<path fill-rule="evenodd" clip-rule="evenodd" d="M34.5 21.1094C30.8992 21.1094 27.8895 23.6481 27.1661 27.0341C27.0737 27.4666 26.6916 27.7758 26.2493 27.7758H26C22.9084 27.7758 20.375 30.3091 20.375 33.4007C20.375 36.4924 22.9084 39.0257 26 39.0257H27.0625V35.3114C27.0625 34.914 27.313 34.5598 27.6877 34.4274L34.1877 32.1313C34.3898 32.0599 34.6102 32.0599 34.8123 32.1313L41.3123 34.4274C41.687 34.5598 41.9375 34.914 41.9375 35.3114V39.0268C41.9526 39.0261 41.9679 39.0257 41.9832 39.0257H43C46.0914 39.0257 48.625 36.4923 48.625 33.4007C48.625 30.3091 46.0916 27.7758 43 27.7758H42.7507C42.3084 27.7758 41.9263 27.4666 41.8339 27.0341C41.1105 23.6481 38.1008 21.1094 34.5 21.1094ZM41.9375 40.8997V41.4631C41.9375 45.7108 38.7355 49.2263 34.6201 49.7579C34.5404 49.7682 34.4596 49.7682 34.3799 49.7579C30.2646 49.2263 27.0625 45.7109 27.0625 41.4631V40.9007H26C21.8729 40.9007 18.5 37.5279 18.5 33.4007C18.5 29.4353 21.6137 26.1662 25.5185 25.9161C26.6759 22.0515 30.2577 19.2344 34.5 19.2344C38.7423 19.2344 42.3241 22.0515 43.4815 25.9161C47.3863 26.1662 50.5 29.4353 50.5 33.4007C50.5 37.5279 47.1269 40.9007 43 40.9007H41.9832C41.9679 40.9007 41.9526 40.9004 41.9375 40.8997ZM28.9375 41.4631C28.9375 44.7061 31.3569 47.4161 34.5 47.8817C37.6431 47.4161 40.0625 44.706 40.0625 41.4631V35.9745L34.5 34.0095L28.9375 35.9745V41.4631ZM37.1899 39.1356C37.5552 39.5026 37.5537 40.0962 37.1867 40.4614L34.549 43.0864C34.1832 43.4504 33.5921 43.4504 33.2264 43.0864L31.8133 41.6801C31.4463 41.3149 31.4449 40.7213 31.8101 40.3543C32.1753 39.9873 32.7689 39.9859 33.1359 40.3511L33.8877 41.0992L35.8641 39.1324C36.2311 38.7671 36.8247 38.7686 37.1899 39.1356Z" fill="#222737"/>
</svg>
