<svg width="69" height="69" viewBox="0 0 69 69" fill="none" xmlns="http://www.w3.org/2000/svg">
<rect x="0.5" y="0.5" width="68" height="68" rx="34" fill="white"/>
<path d="M48.3666 32.3425C48.3666 27.739 46.1001 23.6696 42.6254 21.1489C42.5612 21.0955 42.5078 21.0421 42.4436 20.9887C42.4222 20.978 42.3902 20.9673 42.3688 20.9566C40.1343 19.4079 37.4294 18.5 34.5 18.5C31.5706 18.5 28.8977 19.3758 26.5777 20.9887C26.5777 20.9887 26.567 20.9887 26.5563 20.9887C26.5456 20.9887 26.5349 21.01 26.5135 21.0207C25.8721 21.4693 25.252 21.9713 24.6853 22.5374C22.0766 25.1649 20.6333 28.6362 20.6333 32.3318V32.7804V40.4066C20.6333 41.8378 21.7987 43.002 23.2313 43.002H25.6048C27.0374 43.002 28.2028 41.8378 28.2028 40.4066V34.3078C28.2028 32.8765 27.0374 31.7123 25.6048 31.7123H22.7929C22.9319 29.0848 23.9262 26.6175 25.6582 24.6415C25.7758 24.8658 25.9255 25.0794 26.1073 25.2717C26.6418 25.8271 27.3688 26.1048 28.1065 26.1048C28.6839 26.1048 29.2612 25.9339 29.7744 25.5708C32.5648 23.6268 36.4564 23.6375 39.1935 25.5601C40.3482 26.3718 41.8877 26.2437 42.8499 25.261C43.0317 25.0794 43.1707 24.8551 43.2989 24.6308C44.9775 26.5427 46.0252 28.9993 46.175 31.7016H43.3631C41.9305 31.7016 40.7651 32.8659 40.7651 34.297V40.3959C40.7651 41.8271 41.9305 42.9913 43.3631 42.9913H43.4807V43.4613C43.4807 44.9886 42.2298 46.2383 40.7009 46.2383H38.8941C38.5092 45.01 37.3652 44.1021 36.0075 44.1021H32.9604C31.2819 44.1021 29.9241 45.4693 29.9241 47.1355V47.4666C29.9241 49.1435 31.2926 50.5 32.9604 50.5H36.0075C37.3652 50.5 38.5092 49.6028 38.8941 48.3638H40.7009C43.4166 48.3638 45.619 46.1636 45.619 43.4506V42.9806H45.7366C47.1692 42.9806 48.3345 41.8164 48.3345 40.3852V32.7804C48.3345 32.7804 48.3345 32.7697 48.3345 32.759V32.3105L48.3666 32.3425ZM26.0966 34.3291V40.4279C26.0966 40.6842 25.8934 40.8872 25.6369 40.8872H23.2634C23.0068 40.8872 22.8036 40.6842 22.8036 40.4279V33.8698H25.6369C25.8934 33.8698 26.0966 34.0728 26.0966 34.3291ZM41.3531 23.7871C41.1179 24.022 40.7544 24.0434 40.4444 23.8298C38.7123 22.6121 36.6596 21.9713 34.5106 21.9713C32.3617 21.9713 30.3197 22.6121 28.577 23.8405C28.2776 24.0541 27.9034 24.0327 27.6682 23.7977C27.4865 23.6055 27.4758 23.3919 27.4865 23.285C27.5078 23.0821 27.6147 22.8899 27.7965 22.7617C29.753 21.3838 32.0731 20.6362 34.5106 20.6362C36.9483 20.6362 39.3645 21.4479 41.2783 22.8044C41.4173 22.9326 41.5135 23.0821 41.5348 23.2637C41.5348 23.3705 41.5348 23.5948 41.3531 23.7764V23.7871ZM36.9376 47.5094C36.9376 48.0007 36.5313 48.4066 36.0395 48.4066H32.9924C32.5007 48.4066 32.0944 48.0007 32.0944 47.5094V47.1782C32.0944 46.6762 32.5007 46.281 32.9924 46.281H36.0395C36.5313 46.281 36.9376 46.6869 36.9376 47.1782V47.5094ZM46.2284 40.4279C46.2284 40.6842 46.0145 40.8872 45.7687 40.8872H43.3951C43.1386 40.8872 42.9355 40.6842 42.9355 40.4279V34.3291C42.9355 34.0728 43.1492 33.8698 43.3951 33.8698H46.2284V40.4279Z" fill="#222737"/>
</svg>
