<svg width="18" height="19" viewBox="0 0 18 19" fill="none" xmlns="http://www.w3.org/2000/svg">
<g clip-path="url(#clip0_52_1734)">
<path d="M0.755299 9.96297C0.467587 9.67526 0.32373 9.32162 0.32373 8.90203V2.60833C0.32373 2.20074 0.467587 1.85308 0.755299 1.56537C1.04301 1.27766 1.39066 1.1338 1.79826 1.1338H8.09196C8.49955 1.1338 8.8532 1.27766 9.1529 1.56537L17.2448 9.65728C17.5325 9.94499 17.6764 10.2926 17.6764 10.7002C17.6764 11.1078 17.5325 11.4615 17.2448 11.7612L10.9511 18.0549C10.6634 18.3426 10.3157 18.4865 9.90815 18.4865C9.50055 18.4865 9.1529 18.3426 8.86519 18.0549L0.755299 9.96297ZM2.24781 4.65828C2.24781 5.12581 2.40065 5.51242 2.70635 5.81812C3.01204 6.12381 3.39566 6.27666 3.8572 6.27666C4.31874 6.27666 4.70235 6.12381 5.00805 5.81812C5.31374 5.51242 5.46659 5.12881 5.46659 4.66727C5.46659 4.20573 5.31374 3.82211 5.00805 3.51642C4.70235 3.21073 4.31874 3.05788 3.8572 3.05788C3.39566 3.05788 3.01204 3.21073 2.70635 3.51642C2.40065 3.82211 2.24781 4.20873 2.24781 4.67626V4.65828Z" fill="#9867FF"/>
</g>
<defs>
<clipPath id="clip0_52_1734">
<rect width="18" height="18" fill="white" transform="matrix(1 0 0 -1 0 18.8102)"/>
</clipPath>
</defs>
</svg>
