<svg width="16" height="16" viewBox="0 0 16 16" fill="none" xmlns="http://www.w3.org/2000/svg">
<path d="M8.009 15.3475C6.64237 15.3475 5.37763 15.0059 4.21479 14.3226C3.08792 13.6512 2.19481 12.7521 1.53547 11.6253C0.852156 10.4624 0.510498 9.20068 0.510498 7.84004C0.510498 6.4794 0.852156 5.21766 1.53547 4.05483C2.19481 2.92795 3.08792 2.02885 4.21479 1.35752C5.37763 0.674208 6.63937 0.33255 8.00001 0.33255C9.36065 0.33255 10.6224 0.674208 11.7852 1.35752C12.9241 2.02885 13.8232 2.92795 14.4825 4.05483C15.1658 5.21766 15.5075 6.4794 15.5075 7.84004C15.5075 9.20068 15.1658 10.4624 14.4825 11.6253C13.8232 12.7521 12.9241 13.6512 11.7852 14.3226C10.6224 15.0059 9.36364 15.3475 8.009 15.3475ZM7.25375 10.834L12.5584 5.52935L11.4975 4.46841L7.25375 8.71217L5.13188 6.59029L4.07094 7.65123L7.25375 10.834Z" fill="#9867FF"/>
</svg>
