<svg width="14" height="17" viewBox="0 0 14 17" fill="none" xmlns="http://www.w3.org/2000/svg">
<path d="M7.00794 9.0937C6.3153 9.0937 5.67593 8.92054 5.08985 8.57422C4.50377 8.2279 4.03757 7.7617 3.69125 7.17562C3.34493 6.58954 3.17177 5.95018 3.17177 5.25753C3.17177 4.56489 3.34493 3.92553 3.69125 3.33945C4.03757 2.75337 4.50377 2.28717 5.08985 1.94085C5.67593 1.59453 6.3153 1.42137 7.00794 1.42137C7.70058 1.42137 8.33994 1.59453 8.92602 1.94085C9.5121 2.28717 9.9783 2.75337 10.3246 3.33945C10.6709 3.92553 10.8441 4.56489 10.8441 5.25753C10.8441 5.95018 10.6709 6.58954 10.3246 7.17562C9.9783 7.7617 9.5121 8.2279 8.92602 8.57422C8.33994 8.92054 7.70058 9.0937 7.00794 9.0937ZM7.00794 2.42836C6.49645 2.42836 6.02225 2.55357 5.58536 2.80399C5.14846 3.05441 4.80481 3.39806 4.55439 3.83496C4.30397 4.27185 4.17877 4.74605 4.17877 5.25753C4.17877 5.76902 4.30397 6.24055 4.55439 6.67212C4.80481 7.10369 5.14846 7.44734 5.58536 7.70309C6.02225 7.95883 6.49645 8.08671 7.00794 8.08671C7.51942 8.08671 7.99095 7.95883 8.42252 7.70309C8.85409 7.44734 9.19775 7.10369 9.45349 6.67212C9.70923 6.24055 9.83711 5.76902 9.83711 5.25753C9.83711 4.74605 9.70923 4.27185 9.45349 3.83496C9.19775 3.39806 8.85409 3.05441 8.42252 2.80399C7.99095 2.55357 7.51942 2.42836 7.00794 2.42836ZM12.7302 15.759C12.5917 15.759 12.4745 15.7084 12.3786 15.6072C12.2827 15.506 12.2347 15.3914 12.2347 15.2635C12.2347 14.507 11.9949 13.8037 11.5154 13.1536C11.0572 12.5249 10.4338 12.0294 9.6453 11.6671C8.83544 11.2835 7.95632 11.0917 7.00794 11.0917C6.05955 11.0917 5.18043 11.2835 4.37057 11.6671C3.58203 12.0294 2.95865 12.5249 2.50044 13.1536C2.02092 13.8037 1.78116 14.507 1.78116 15.2635C1.78116 15.3914 1.73055 15.506 1.62931 15.6072C1.52808 15.7084 1.41087 15.759 1.27767 15.759C1.14447 15.759 1.02725 15.7084 0.926018 15.6072C0.824786 15.506 0.77417 15.3914 0.77417 15.2635C0.77417 14.3258 1.06188 13.4573 1.63731 12.6581C2.18076 11.8696 2.92136 11.2515 3.85908 10.804C4.82878 10.3245 5.8784 10.0847 7.00794 10.0847C8.13747 10.0847 9.18176 10.3245 10.1408 10.804C11.0892 11.2515 11.8351 11.8696 12.3786 12.6581C12.9433 13.4573 13.2257 14.3258 13.2257 15.2635C13.2257 15.3914 13.1778 15.506 13.0819 15.6072C12.986 15.7084 12.8687 15.759 12.7302 15.759Z" fill="#9867FF"/>
</svg>
